<?xml version="1.0" encoding="utf-8"?>
<!-- Generator: Adobe Illustrator 25.4.1, SVG Export Plug-In . SVG Version: 6.00 Build 0)  -->
<svg version="1.1" id="Layer_1" xmlns="http://www.w3.org/2000/svg" xmlns:xlink="http://www.w3.org/1999/xlink" x="0px" y="0px"
	 viewBox="0 0 414.9 131.9" style="enable-background:new 0 0 414.9 131.9;" xml:space="preserve">
<style type="text/css">
	.st0{fill:#00EE98;}
	.st1{fill:#00AE94;}
	.st2{fill:#6B6B6B;}
	.st3{fill:#C1C1C1;}
</style>
<g id="Calque_3">
	<polygon class="st0" points="13,39.3 67.6,7.6 67.6,57.2 13,88.5 	"/>
	<polygon class="st1" points="49.3,111.5 49.3,67.9 13,88.5 	"/>
	<polygon class="st2" points="117.2,98.5 62.6,130.1 62.6,80.5 117.2,49.2 	"/>
	<polygon class="st3" points="80.9,26.3 80.9,69.9 117.2,49.2 	"/>
</g>
<g>
	<path class="st0" d="M143.4,94V37h11.3l8.9,20.9c2.6,6,5.1,13.1,7,19.6l0.2,0c-0.6-7.5-0.8-15.2-0.8-23.8V37h8.9v57h-10.2l-9.2-22
		c-2.6-6.2-5.4-13.5-7.5-20.1l-0.2,0c0.3,7.6,0.4,15.6,0.4,24.9V94H143.4z"/>
	<path class="st0" d="M213.1,69.9h-15.8v13.6h17.7V94h-27.5V37H214v10.6h-16.8v11.9h15.8V69.9z"/>
	<path class="st0" d="M229.9,47.8h-11.6V37h33.2v10.8h-11.8V94h-9.7V47.8z"/>
	<path class="st2" d="M256.9,80.7c2.6,1.8,6.6,3.6,10.8,3.6c4.5,0,6.8-2.5,6.8-6.2c0-3.5-2.1-5.6-7.2-8c-7.2-3.4-11.9-8.6-11.9-16.9
		c0-9.7,6.2-17.1,16.3-17.1c4.9,0,8.5,1.3,11,2.9l-2.2,10.3c-1.7-1.1-4.8-2.7-9-2.7c-4.2,0-6.3,2.6-6.3,5.5c0,3.6,2.4,5.2,8,8
		c7.6,3.8,11.2,9,11.2,17.1c0,9.5-5.5,17.7-17.4,17.7c-4.9,0-9.8-1.8-12.2-3.5L256.9,80.7z"/>
	<path class="st2" d="M316.7,69.9h-15.8v13.6h17.7V94h-27.5V37h26.5v10.6h-16.8v11.9h15.8V69.9z"/>
	<path class="st2" d="M325.3,37.8c3.1-0.7,7.8-1.2,12.9-1.2c6.4,0,10.9,1.3,13.9,4.5c2.6,2.7,4,6.7,4,12c0,7.2-3.9,12.3-7.6,14v0.3
		c3,1.6,4.7,5.4,5.8,10.6c1.3,6.5,2.6,13.9,3.5,16.1h-10c-0.7-1.6-1.7-6.2-3-13.3c-1.2-7.1-3-9-7-9.1h-2.9V94h-9.6V37.8z
		 M334.9,62.3h3.8c4.8,0,7.7-3.3,7.7-8.2c0-5.2-2.7-7.9-7.2-7.9c-2.3,0-3.7,0.2-4.4,0.4V62.3z"/>
	<path class="st2" d="M373.3,94l-13.8-57h10.7l5.2,24.1c1.5,6.8,2.8,13.2,3.9,20.3h0.1c1.1-6.8,2.5-13.6,3.9-20.1l5.5-24.3h10.4
		l-14.5,57H373.3z"/>
</g>
</svg>
